<svg width="42" height="42" viewBox="0 0 42 42" fill="none" xmlns="http://www.w3.org/2000/svg">
<path fill-rule="evenodd" clip-rule="evenodd" d="M31.6964 26.0143C30.2725 28.3224 28.3227 30.2723 26.0143 31.6964L34.1468 39.8289C35.7158 41.3979 38.2596 41.3979 39.8286 39.8289C39.8286 39.8288 39.8287 39.8287 39.8289 39.8286C41.3979 38.2596 41.3979 35.7158 39.8289 34.1468L31.6964 26.0143ZM16.9281 0.994385C8.13403 0.994385 0.994343 8.13407 0.994343 16.9281C0.994343 25.7222 8.13403 32.8618 16.9281 32.8618C25.7222 32.8618 32.8618 25.7222 32.8618 16.9281C32.8618 8.13407 25.7222 0.994385 16.9281 0.994385ZM16.9281 6.47438C22.6976 6.47438 27.3818 11.1585 27.3818 16.9281C27.3818 22.6977 22.6976 27.3818 16.9281 27.3818C11.1585 27.3818 6.47435 22.6977 6.47435 16.9281C6.47435 11.1585 11.1585 6.47438 16.9281 6.47438Z" fill="white"/>
</svg>
