<svg width="76" height="76" viewBox="0 0 76 76" fill="none" xmlns="http://www.w3.org/2000/svg">
<path d="M34.3101 10.38H9.95779C8.11247 10.38 6.34273 11.1131 5.03789 12.4179C3.73305 13.7227 3 15.4925 3 17.3378V66.0423C3 67.8876 3.73305 69.6574 5.03789 70.9622C6.34273 72.267 8.11247 73.0001 9.95779 73.0001H58.6624C60.5077 73.0001 62.2774 72.267 63.5823 70.9622C64.8871 69.6574 65.6201 67.8876 65.6201 66.0423V41.69" stroke="#fff" stroke-width="6" stroke-linecap="round" stroke-linejoin="round"/>
<path d="M60.402 5.16151C61.7859 3.77752 63.663 3 65.6203 3C67.5776 3 69.4547 3.77752 70.8386 5.16151C72.2226 6.5455 73.0002 8.42259 73.0002 10.3798C73.0002 12.3371 72.2226 14.2142 70.8386 15.5982L37.7891 48.6477L23.8735 52.1266L27.3524 38.211L60.402 5.16151Z" stroke="#fff" stroke-width="6" stroke-linecap="round" stroke-linejoin="round"/>
</svg>
